<svg width="14" height="16" viewBox="0 0 14 16" fill="none" xmlns="http://www.w3.org/2000/svg">
<path fill-rule="evenodd" clip-rule="evenodd" d="M10.4507 6.19648C11.3989 6.87393 12.5605 7.27256 13.8151 7.27256V4.85951C13.5777 4.85961 13.3408 4.83484 13.1085 4.78561V6.68505C11.8541 6.68505 10.6926 6.28641 9.74409 5.60896V10.5332C9.74409 12.9966 7.74614 14.9934 5.28163 14.9934C4.36211 14.9934 3.50739 14.7156 2.79736 14.239C3.60772 15.0672 4.73778 15.581 5.98802 15.581C8.4527 15.581 10.4507 13.5841 10.4507 11.1207V6.19648H10.4507ZM11.3223 3.76203C10.8377 3.23291 10.5195 2.54905 10.4507 1.79302V1.48267H9.78109C9.9496 2.44352 10.5245 3.26445 11.3223 3.76203ZM4.35613 12.3488C4.08541 11.994 3.93908 11.5599 3.93973 11.1136C3.93973 9.98695 4.85362 9.07349 5.98109 9.07349C6.19118 9.07335 6.40004 9.10558 6.60031 9.16906V6.70212C6.36631 6.67007 6.13015 6.65648 5.89401 6.66148V8.58163C5.69365 8.51815 5.4847 8.48592 5.27453 8.48606C4.14706 8.48606 3.23326 9.39952 3.23326 10.5263C3.23326 11.323 3.69003 12.0128 4.35613 12.3488Z" fill="#612B1C"/>
<path fill-rule="evenodd" clip-rule="evenodd" d="M9.74414 5.60896C10.6926 6.28641 11.8541 6.68504 13.1086 6.68504V4.78561C12.4084 4.63658 11.7884 4.27078 11.3223 3.76203C10.5245 3.26444 9.94965 2.44352 9.78114 1.48267H8.0224V11.1206C8.01842 12.2441 7.10608 13.1539 5.98105 13.1539C5.31807 13.1539 4.72908 12.838 4.35609 12.3488C3.68999 12.0128 3.23321 11.323 3.23321 10.5263C3.23321 9.39952 4.14702 8.48606 5.27449 8.48606C5.49048 8.48606 5.69868 8.51967 5.89397 8.58162V6.66148C3.47278 6.71147 1.52551 8.6888 1.52551 11.1206C1.52551 12.3346 2.01044 13.4351 2.79741 14.2391C3.50743 14.7157 4.36215 14.9935 5.28168 14.9935C7.74619 14.9935 9.74414 12.9966 9.74414 10.5333V5.60896Z" fill="#FFF06A"/>
<path fill-rule="evenodd" clip-rule="evenodd" d="M13.1086 4.78563V4.27202C12.4771 4.27298 11.8581 4.09622 11.3223 3.76197C11.7966 4.28093 12.4211 4.63881 13.1086 4.78563ZM9.78113 1.48269C9.76503 1.39087 9.75269 1.29844 9.74413 1.20561V0.895264H7.31575V10.5332C7.31185 11.6567 6.3996 12.5665 5.27448 12.5665C4.94411 12.5665 4.63229 12.4881 4.35608 12.3488C4.72907 12.8381 5.31806 13.1539 5.98104 13.1539C7.10599 13.1539 8.01841 12.2442 8.02239 11.1206V1.48269H9.78113ZM5.89405 6.66151V6.11471C5.69113 6.08697 5.48656 6.0731 5.28175 6.07321C2.81698 6.07321 0.819031 8.07012 0.819031 10.5332C0.819031 12.0775 1.60426 13.4385 2.79749 14.2391C2.01052 13.435 1.52559 12.3345 1.52559 11.1206C1.52559 8.68883 3.47277 6.7115 5.89405 6.66151Z" fill="#612B1C"/>
</svg>
